<svg width="54" height="54" viewBox="0 0 54 54" fill="none" xmlns="http://www.w3.org/2000/svg">
<path d="M35.0529 0.94666C29.7196 0.119993 24.2796 0.119993 18.9463 0.94666C16.7596 1.29333 15.1596 3.15998 15.1596 5.34664V15.16H5.34628C3.15961 15.16 1.29296 16.76 0.946294 18.9467C0.119627 24.28 0.119627 29.7199 0.946294 35.0533C1.29296 37.2399 3.15961 38.84 5.34628 38.84H9.82626C10.5729 38.84 11.1596 38.2533 11.1596 37.5066V32.92C11.1596 27.4533 15.6129 23 21.0796 23H32.9196C33.9863 23 34.8396 22.1466 34.8396 21.08V12.4933C34.8396 11.7466 35.4263 11.16 36.1729 11.16H37.5063C38.2529 11.16 38.8396 10.5733 38.8396 9.82662V5.34664C38.8396 3.15998 37.2396 1.29333 35.0529 0.94666ZM22.5462 9.87993C21.4529 9.87993 20.4129 8.83996 20.4129 7.74663C20.4129 6.62663 21.4529 5.58663 22.5462 5.58663C23.0796 5.58663 23.6663 5.82666 24.0396 6.2C24.4396 6.57333 24.7063 7.18663 24.7063 7.74663C24.7063 8.83996 23.6662 9.87993 22.5462 9.87993Z" fill="#647B64"/>
<path d="M53.0527 18.9466C52.7061 16.76 50.8394 15.1599 48.6528 15.1599H40.1728C39.4261 15.1599 38.8394 15.7466 38.8394 16.4933V21.0799C38.8394 24.3333 36.1994 26.9999 32.9194 26.9999H21.0794C17.7994 26.9999 15.1594 29.64 15.1594 32.92V48.6533C15.1594 50.8399 16.7595 52.7066 18.9461 53.0533C24.2795 53.8799 29.7194 53.8799 35.0527 53.0533C37.2394 52.7066 38.8394 50.8399 38.8394 48.6533V38.84H48.6528C50.8394 38.84 52.7061 37.2399 53.0527 35.0533C53.8794 29.7199 53.8794 24.28 53.0527 18.9466ZM31.4528 48.4133C30.3595 48.4133 29.2927 47.3733 29.2927 46.2533C29.2927 45.1333 30.3328 44.0933 31.4528 44.0933C31.9595 44.0933 32.5728 44.3333 32.9461 44.68C33.3461 45.0533 33.6128 45.6933 33.6128 46.2266C33.5861 47.3733 32.5461 48.4133 31.4528 48.4133Z" fill="#647B64"/>
</svg>
